PathFileType	4	(X/Y/Z)	C:/Users/opensim2020/Desktop/walking_exp_matlab/subject02_walking09_straight_02.trc	
DataRate	CameraRate	NumFrames	NumMarkers	Units	OrigDataRate	OrigDataStartFrame	OrigNumFrames	
100.00	100.00	6	42	mm	100.00	1377	436	
Frame#	Time	LFHD			RFHD			LBHD			RBHD			C7			T10			CLAV			STRN			RBAK			LSHO			LUPA			LELB			LFRM			LWRA			LWRB			LFIN			RSHO			RUPA			RELB			RFRM			RWRA			RWRB			RFIN			LASI			RASI			LPSI			RPSI			LTHI			LKNE			LTIB			LANK			LHEE			LTOE			RTHI			RKNE			RTIB			RANK			RHEE			RTOE			*39			*40			*41			
		X1	Y1	Z1	X2	Y2	Z2	X3	Y3	Z3	X4	Y4	Z4	X5	Y5	Z5	X6	Y6	Z6	X7	Y7	Z7	X8	Y8	Z8	X9	Y9	Z9	X10	Y10	Z10	X11	Y11	Z11	X12	Y12	Z12	X13	Y13	Z13	X14	Y14	Z14	X15	Y15	Z15	X16	Y16	Z16	X17	Y17	Z17	X18	Y18	Z18	X19	Y19	Z19	X20	Y20	Z20	X21	Y21	Z21	X22	Y22	Z22	X23	Y23	Z23	X24	Y24	Z24	X25	Y25	Z25	X26	Y26	Z26	X27	Y27	Z27	X28	Y28	Z28	X29	Y29	Z29	X30	Y30	Z30	X31	Y31	Z31	X32	Y32	Z32	X33	Y33	Z33	X34	Y34	Z34	X35	Y35	Z35	X36	Y36	Z36	X37	Y37	Z37	X38	Y38	Z38	X39	Y39	Z39	X40	Y40	Z40	X41	Y41	Z41	X42	Y42	Z42	

164	1.630	1393.73865	939.52484	1758.74609	1251.77356	942.31049	1735.43420	1408.07410	1064.82031	1676.26733	1267.87170	1079.61121	1651.57825	1327.05225	1115.59058	1538.50891	1303.57983	1172.79382	1265.01318	1356.17212	980.89471	1465.74219	1349.92859	932.23883	1292.68945	1247.11133	1166.11340	1369.18079	1514.36316	1074.31067	1505.93066	1584.11963	1110.84937	1304.40161	1593.32446	1120.47827	1162.39026	1609.56104	1100.38647	1031.56323	1595.18408	1021.00720	914.70044	1617.17871	1073.61389	911.03076	1622.79724	1047.67957	848.84460	1154.67090	1009.61676	1507.75537	1058.82007	1018.55420	1320.53687	1038.54956	998.23004	1175.12939	1021.44995	955.04193	1062.30420	1042.96350	895.37708	942.17896	1006.28290	938.00513	933.96161	1005.67975	892.29382	877.08118	1469.10718	967.61627	1000.92938	1216.33105	929.46161	985.38898	1358.69080	1163.16675	1045.08398	1243.75061	1150.07104	1045.05188	1540.08789	993.49158	695.77094	1526.73279	973.57666	506.20679	1509.82300	1080.85767	351.39224	1485.72485	1139.66663	134.47801	1425.64856	1161.71301	110.51212	1546.17957	1017.27618	59.96360	1157.15051	999.79474	677.19336	1208.23010	1013.05005	468.73956	1206.50464	1060.86304	285.43091	1250.45813	1092.16406	95.92103	1304.20801	1134.15491	43.85715	1249.53149	940.29779	42.68396	1303.79602	1047.21008	1814.25452	-3356.96680	2846.05371	1033.99731			 
165	1.640	1395.58081	931.94879	1758.17786	1253.73950	934.52222	1735.56091	1409.32605	1057.53247	1676.07275	1268.99854	1071.97339	1651.87012	1327.70752	1108.30566	1538.57813	1304.59949	1166.07922	1265.09155	1357.20642	973.76001	1465.74817	1349.95581	925.20294	1292.55774	1247.44849	1158.75952	1369.45459	1514.77661	1067.40356	1505.28345	1584.17932	1106.62720	1304.22314	1592.56445	1117.37524	1162.13684	1608.64612	1099.44885	1031.02673	1595.01733	1022.00861	913.26569	1616.11768	1074.87964	910.15295	1621.95740	1049.92712	847.47980	1155.50830	1002.11725	1508.26770	1059.02209	1009.23871	1321.05872	1038.61023	987.42371	1175.89600	1022.23602	943.10272	1063.34204	1043.82397	880.80450	944.36798	1006.86560	924.03522	935.47681	1006.83789	877.59448	879.05603	1469.08350	959.64642	1001.43292	1215.92639	923.70587	984.94440	1360.39368	1156.77771	1045.27112	1245.32874	1144.03125	1044.86768	1541.29797	982.79797	697.02466	1527.18591	961.62811	506.57574	1512.65051	1063.38770	347.25229	1491.18201	1113.66589	127.70377	1431.39539	1135.43970	102.51838	1550.06470	987.21838	58.28865	1157.73804	996.47345	676.92584	1208.70544	1010.89380	468.49237	1206.89465	1059.60681	285.47913	1250.66150	1092.01550	96.05634	1304.46326	1133.65063	43.70812	1249.38489	940.31018	42.65636	1305.60059	1039.22009	1814.41724						 
166	1.650	1397.65027	924.42371	1757.66992	1255.43103	926.62311	1735.32300	1410.64099	1050.29272	1675.76038	1270.20801	1064.43542	1652.18811	1328.51465	1101.07776	1538.55042	1305.71960	1159.39429	1265.14172	1357.98413	966.57965	1465.50769	1349.76233	918.14862	1292.06885	1248.15674	1151.95752	1369.59326	1515.81848	1060.69897	1504.89734	1584.32458	1102.23962	1303.91040	1592.06653	1114.27197	1161.95459	1607.84888	1098.53430	1030.51318	1594.87317	1022.83746	911.56396	1615.23181	1076.17822	909.28375	1621.26526	1052.12903	846.23785	1156.36377	994.78821	1508.58545	1059.44580	999.79773	1321.37817	1039.01367	976.48462	1176.48340	1022.59058	930.40723	1064.66675	1045.21082	867.76648	946.34363	1007.59888	910.22552	936.87244	1008.00031	863.18597	881.10156	1469.22717	951.73053	1001.74530	1215.61841	917.88861	984.45007	1361.92932	1149.33691	1045.04456	1246.98047	1137.99207	1044.66370	1542.08740	972.15045	697.76617	1527.73120	950.03772	506.82376	1515.54907	1045.95972	343.07123	1496.77051	1087.40466	121.44951	1437.36401	1109.12793	95.18797	1553.80408	957.35919	57.09590	1158.41223	993.05939	676.53992	1209.19507	1008.29401	468.42795	1207.33411	1058.35730	285.47922	1250.89465	1091.86292	96.17880	1304.63904	1133.65393	43.76060	1249.35388	940.63281	42.51634	1307.51807	1031.29504	1814.45020	-3356.95093	2845.85645	1034.00891			 
167	1.660	1399.38049	916.83362	1756.77808	1257.41431	918.70612	1735.10938	1412.01611	1043.02368	1675.29407	1271.44604	1056.82300	1652.32800	1329.40002	1093.81592	1538.41064	1306.94873	1152.67102	1265.08704	1358.53027	959.34705	1464.96094	1350.16199	911.18066	1291.87817	1248.73596	1144.97266	1369.64124	1516.51855	1053.77417	1504.10913	1584.05640	1097.52063	1303.29065	1591.68311	1111.07800	1161.67432	1607.29492	1097.50500	1030.03638	1594.37390	1023.54419	909.71295	1614.38489	1077.03198	908.40259	1620.72534	1054.27014	845.03992	1157.28113	987.54608	1508.81946	1060.28137	990.87018	1321.75342	1040.01172	965.15082	1176.95837	1023.42017	918.26990	1065.88831	1046.37549	854.61011	948.03064	1008.38275	896.42242	938.23639	1009.15234	848.65613	882.94092	1469.41235	943.85333	1001.80676	1215.37146	911.99237	983.97241	1363.68396	1142.37793	1044.77991	1248.74475	1131.93066	1044.30542	1543.06750	962.03693	698.76556	1528.59253	938.65784	506.92664	1518.56824	1028.32056	338.88107	1502.07764	1060.96667	115.34827	1443.25696	1082.87073	88.41544	1557.24976	927.71912	56.30397	1158.79028	989.24683	676.17047	1209.33411	1005.82581	467.95703	1207.74500	1057.16028	285.52292	1251.15662	1091.71692	96.40839	1304.87122	1133.63623	43.90759	1249.23352	940.65588	42.55046	1309.53394	1023.41125	1814.39417	-3360.22949	2845.10205	1034.01147			 
168	1.670	1401.71741	909.50934	1756.12061	1259.40137	910.95880	1735.01477	1413.41711	1035.77209	1674.74097	1272.67517	1049.23657	1652.31482	1330.42688	1086.61926	1538.15955	1308.25500	1145.93665	1264.92493	1359.71948	952.18402	1464.69971	1350.16589	904.11249	1291.25110	1249.25940	1137.44153	1369.44836	1517.41089	1046.76941	1503.37329	1584.52234	1092.86975	1303.05640	1591.43604	1107.77612	1161.48193	1606.89734	1096.37756	1029.60510	1594.68176	1024.30042	908.36145	1613.92029	1078.08105	907.67181	1620.38672	1056.27332	843.92383	1158.25146	980.40723	1508.91516	1060.83105	982.58722	1321.87549	1040.28674	954.76245	1177.52368	1024.45508	906.37067	1066.89282	1047.87476	841.36182	949.72205	1009.15576	882.57587	939.55786	1010.51392	834.30505	884.78595	1469.77637	935.98450	1001.70483	1215.22180	906.40198	983.46826	1365.49084	1135.35999	1044.34778	1250.51208	1125.90613	1043.90759	1543.60852	951.98785	698.96240	1529.48926	927.49957	506.74341	1521.92200	1010.80829	334.68973	1507.52271	1034.60474	109.97451	1448.93713	1056.29932	81.90837	1560.37695	898.22528	55.95002	1159.38208	985.52753	675.82062	1210.05408	1003.43445	467.68951	1208.12036	1055.92847	285.60202	1251.40356	1091.50574	96.56649	1305.09216	1133.59631	43.99741	1249.13013	940.68872	42.56325	1311.56909	1015.61646	1814.18323	-3360.33105	2845.06958	1034.16772			 
169	1.680	1403.59961	901.93018	1755.18860	1261.38477	903.30524	1734.73303	1414.91895	1028.56458	1674.11133	1274.10339	1041.73254	1652.27124	1331.54248	1079.38721	1537.79248	1309.42627	1139.04443	1264.47327	1360.59473	944.96033	1464.14380	1350.75586	897.10266	1290.86499	1250.62817	1131.05432	1369.43994	1518.41345	1039.69434	1502.57727	1584.93347	1087.90942	1302.59546	1591.41113	1104.38013	1161.23230	1606.68799	1095.10364	1029.16089	1595.01550	1024.85168	906.76886	1613.51392	1078.88550	906.95447	1620.04980	1058.18750	842.89014	1159.24695	973.31824	1508.91821	1061.63049	974.14349	1321.89087	1041.22815	943.89502	1177.83716	1025.37231	894.43341	1067.92261	1048.92395	828.09576	951.31342	1010.46198	869.20197	940.86761	1011.78394	820.18591	886.62671	1470.18005	928.20013	1001.45996	1215.19080	900.90698	983.01691	1367.22192	1128.34241	1043.83337	1252.42651	1119.79907	1043.30591	1544.86121	942.54730	699.65063	1530.32312	916.53516	506.43741	1525.68665	993.21832	330.77838	1512.89648	1008.36743	105.13273	1454.92761	1030.13000	76.12598	1563.23401	868.97601	56.25643	1160.14978	981.71368	675.44141	1210.48389	1000.68695	467.29413	1208.55042	1054.60278	285.66019	1251.62476	1091.24780	96.70970	1305.41394	1133.69763	44.28951	1249.01599	940.71600	42.59486	1313.46289	1007.73090	1813.78943	-3356.83057	2845.92651	1034.01465			 
